<?xml version="1.0" encoding="UTF-8"?><svg id="Layer_2" xmlns="http://www.w3.org/2000/svg" viewBox="0 0 196.27 56.11"><defs><style>.cls-1{fill:#231f20;}</style></defs><g id="Layer_1-2"><path class="cls-1" d="M0,26.09C16.89,6.97,42.64-6.25,68.22,3.05c23.93,9.02,35.72,28.56,63.45,31.37,13.47,1.53,27.55-1.33,40.29-6.14,1.91-.68,3.78-1.45,5.68-2.19-1.62,1.25-3.3,2.4-5,3.54-24.28,16.02-53.24,17.21-77.79.91-10.05-6.28-19.05-14.21-29.97-18.64C42.33,2.51,19,13.44,0,26.09h0Z"/><path class="cls-1" d="M175.54,56.11c2.57-12.74,7.5-24.78,13-36.49,0,0,1.7,4.6,1.7,4.6-9.62-4.67-19.05-9.82-27.47-16.48,10.54,2.08,20.58,5.9,30.38,10.18,0,0,3.13,1.39,3.13,1.39-5.7,12.89-11.99,25.64-20.73,36.8h0Z"/></g></svg>